<?xml version="1.0" encoding="UTF-8"?>
<svg xmlns="http://www.w3.org/2000/svg" xmlns:xlink="http://www.w3.org/1999/xlink" width="50pt" height="50pt" viewBox="0 0 50 50" version="1.1">
<g id="surface4145436">
<path style=" stroke:none;fill-rule:nonzero;fill:rgb(100%,100%,100%);fill-opacity:1;" d="M 10.9375 3.125 C 6.640625 3.125 3.125 6.640625 3.125 10.9375 L 3.125 35.9375 C 3.125 40.234375 6.640625 43.75 10.9375 43.75 L 35.9375 43.75 C 40.234375 43.75 43.75 40.234375 43.75 35.9375 L 43.75 10.9375 C 43.75 6.640625 40.234375 3.125 35.9375 3.125 Z M 10.9375 6.25 L 35.9375 6.25 C 38.546875 6.25 40.625 8.328125 40.625 10.9375 L 40.625 35.9375 C 40.625 38.546875 38.546875 40.625 35.9375 40.625 L 30.949219 40.625 L 30.949219 28.019531 L 35.316406 28.019531 L 35.96875 22.992188 L 30.949219 22.992188 L 30.949219 19.789062 C 30.949219 18.332031 31.355469 17.339844 33.460938 17.339844 L 36.144531 17.339844 L 36.144531 12.84375 C 35.679688 12.78125 34.085938 12.648438 32.234375 12.648438 C 28.363281 12.648438 25.71875 14.988281 25.71875 19.289062 L 25.71875 22.992188 L 21.875 22.980469 L 21.875 28.007812 L 25.71875 28.019531 L 25.71875 40.625 L 10.9375 40.625 C 8.328125 40.625 6.25 38.546875 6.25 35.9375 L 6.25 10.9375 C 6.25 8.328125 8.328125 6.25 10.9375 6.25 Z M 10.9375 6.25 "/>
</g>
</svg>
