<?xml version="1.0" encoding="UTF-8"?>
<svg xmlns="http://www.w3.org/2000/svg" xmlns:xlink="http://www.w3.org/1999/xlink" width="18pt" height="18pt" viewBox="0 0 18 18" version="1.1">
<g id="surface27090267">
<path style=" stroke:none;fill-rule:nonzero;fill:rgb(100%,100%,100%);fill-opacity:1;" d="M 8.945312 3.1875 C 6.5625 3.1875 4.351562 3.355469 3.085938 3.621094 C 3.085938 3.621094 3.082031 3.621094 3.078125 3.625 C 2.128906 3.835938 1.230469 4.519531 1.042969 5.585938 C 1.042969 5.585938 1.042969 5.589844 1.042969 5.589844 C 0.898438 6.449219 0.75 7.570312 0.75 9.1875 C 0.75 10.800781 0.898438 11.890625 1.082031 12.796875 C 1.273438 13.832031 2.148438 14.535156 3.117188 14.75 C 3.121094 14.753906 3.125 14.753906 3.128906 14.753906 C 4.449219 15.015625 6.597656 15.1875 8.980469 15.1875 C 11.363281 15.1875 13.515625 15.015625 14.835938 14.753906 C 14.839844 14.753906 14.84375 14.753906 14.847656 14.75 C 15.800781 14.539062 16.695312 13.855469 16.882812 12.789062 C 16.886719 12.785156 16.886719 12.785156 16.886719 12.78125 C 17.027344 11.902344 17.214844 10.785156 17.25 9.164062 C 17.25 9.160156 17.25 9.15625 17.25 9.152344 C 17.25 7.53125 17.066406 6.40625 16.882812 5.511719 C 16.691406 4.472656 15.816406 3.769531 14.847656 3.550781 C 14.832031 3.550781 14.820312 3.546875 14.804688 3.542969 C 13.515625 3.363281 11.328125 3.1875 8.945312 3.1875 Z M 7.558594 6.375 C 7.699219 6.371094 7.839844 6.40625 7.976562 6.480469 L 11.203125 8.304688 C 11.746094 8.613281 11.746094 9.386719 11.203125 9.695312 L 7.976562 11.519531 C 7.4375 11.824219 6.765625 11.4375 6.765625 10.824219 L 6.765625 7.175781 C 6.765625 6.714844 7.140625 6.382812 7.558594 6.375 Z M 7.558594 6.375 "/>
</g>
</svg>
