<?xml version="1.0" encoding="UTF-8"?>
<svg xmlns="http://www.w3.org/2000/svg" xmlns:xlink="http://www.w3.org/1999/xlink" width="17pt" height="17pt" viewBox="0 0 17 17" version="1.1">
<g id="surface27107785">
<path style=" stroke:none;fill-rule:nonzero;fill:rgb(100%,100%,100%);fill-opacity:1;" d="M 3.71875 1.0625 C 2.257812 1.0625 1.0625 2.257812 1.0625 3.71875 L 1.0625 12.21875 C 1.0625 13.679688 2.257812 14.875 3.71875 14.875 L 12.21875 14.875 C 13.679688 14.875 14.875 13.679688 14.875 12.21875 L 14.875 3.71875 C 14.875 2.257812 13.679688 1.0625 12.21875 1.0625 Z M 3.71875 2.125 L 12.21875 2.125 C 13.105469 2.125 13.8125 2.832031 13.8125 3.71875 L 13.8125 12.21875 C 13.8125 13.105469 13.105469 13.8125 12.21875 13.8125 L 10.523438 13.8125 L 10.523438 9.527344 L 12.007812 9.527344 L 12.230469 7.816406 L 10.523438 7.816406 L 10.523438 6.726562 C 10.523438 6.234375 10.660156 5.894531 11.375 5.894531 L 12.289062 5.894531 L 12.289062 4.367188 C 12.132812 4.34375 11.589844 4.300781 10.960938 4.300781 C 9.644531 4.300781 8.746094 5.09375 8.746094 6.558594 L 8.746094 7.816406 L 7.4375 7.8125 L 7.4375 9.523438 L 8.746094 9.527344 L 8.746094 13.8125 L 3.71875 13.8125 C 2.832031 13.8125 2.125 13.105469 2.125 12.21875 L 2.125 3.71875 C 2.125 2.832031 2.832031 2.125 3.71875 2.125 Z M 3.71875 2.125 "/>
</g>
</svg>
