<?xml version="1.0" encoding="UTF-8"?>
<svg xmlns="http://www.w3.org/2000/svg" xmlns:xlink="http://www.w3.org/1999/xlink" width="18pt" height="18pt" viewBox="0 0 18 18" version="1.1">
<g id="surface16688417">
<path style=" stroke:none;fill-rule:nonzero;fill:rgb(100%,100%,100%);fill-opacity:1;" d="M 6.1875 1.875 C 3.8125 1.875 1.875 3.8125 1.875 6.1875 L 1.875 11.8125 C 1.875 14.1875 3.8125 16.125 6.1875 16.125 L 11.8125 16.125 C 14.1875 16.125 16.125 14.1875 16.125 11.8125 L 16.125 6.1875 C 16.125 3.8125 14.1875 1.875 11.8125 1.875 Z M 6.1875 3 L 11.8125 3 C 13.578125 3 15 4.421875 15 6.1875 L 15 11.8125 C 15 13.578125 13.578125 15 11.8125 15 L 6.1875 15 C 4.421875 15 3 13.578125 3 11.8125 L 3 6.1875 C 3 4.421875 4.421875 3 6.1875 3 Z M 12.75 4.5 C 12.335938 4.5 12 4.835938 12 5.25 C 12 5.664062 12.335938 6 12.75 6 C 13.164062 6 13.5 5.664062 13.5 5.25 C 13.5 4.835938 13.164062 4.5 12.75 4.5 Z M 9 5.25 C 6.9375 5.25 5.25 6.9375 5.25 9 C 5.25 11.0625 6.9375 12.75 9 12.75 C 11.0625 12.75 12.75 11.0625 12.75 9 C 12.75 6.9375 11.0625 5.25 9 5.25 Z M 9 6.375 C 10.457031 6.375 11.625 7.542969 11.625 9 C 11.625 10.457031 10.457031 11.625 9 11.625 C 7.542969 11.625 6.375 10.457031 6.375 9 C 6.375 7.542969 7.542969 6.375 9 6.375 Z M 9 6.375 "/>
</g>
</svg>
