<?xml version="1.0" encoding="UTF-8"?>
<svg xmlns="http://www.w3.org/2000/svg" xmlns:xlink="http://www.w3.org/1999/xlink" width="18pt" height="18pt" viewBox="0 0 18 18" version="1.1">
<g id="surface16688917">
<path style=" stroke:none;fill-rule:nonzero;fill:rgb(100%,100%,100%);fill-opacity:1;" d="M 4.3125 2.25 C 3.179688 2.25 2.25 3.179688 2.25 4.3125 L 2.25 13.6875 C 2.25 14.820312 3.179688 15.75 4.3125 15.75 L 13.6875 15.75 C 14.820312 15.75 15.75 14.820312 15.75 13.6875 L 15.75 4.3125 C 15.75 3.179688 14.820312 2.25 13.6875 2.25 Z M 4.3125 3.375 L 13.6875 3.375 C 14.210938 3.375 14.625 3.789062 14.625 4.3125 L 14.625 13.6875 C 14.625 14.210938 14.210938 14.625 13.6875 14.625 L 4.3125 14.625 C 3.789062 14.625 3.375 14.210938 3.375 13.6875 L 3.375 4.3125 C 3.375 3.789062 3.789062 3.375 4.3125 3.375 Z M 5.179688 6.421875 C 4.917969 6.421875 4.875 6.550781 4.875 6.6875 C 4.875 6.9375 5.082031 8.277344 6.207031 9.816406 C 7.023438 10.933594 8.097656 11.578125 9.050781 11.578125 C 9.628906 11.578125 9.6875 11.429688 9.6875 11.203125 L 9.6875 10.179688 C 9.6875 9.90625 9.75 9.859375 9.933594 9.859375 C 10.066406 9.859375 10.332031 9.945312 10.847656 10.546875 C 11.441406 11.238281 11.550781 11.578125 11.890625 11.578125 L 12.792969 11.578125 C 13 11.578125 13.121094 11.488281 13.125 11.320312 C 13.125 11.277344 13.117188 11.230469 13.105469 11.175781 C 13.039062 10.976562 12.734375 10.492188 12.351562 10.03125 C 12.140625 9.773438 11.929688 9.523438 11.835938 9.386719 C 11.769531 9.296875 11.746094 9.230469 11.75 9.171875 C 11.753906 9.109375 11.785156 9.046875 11.835938 8.964844 C 11.828125 8.964844 12.988281 7.328125 13.101562 6.78125 C 13.117188 6.726562 13.125 6.679688 13.125 6.636719 C 13.117188 6.511719 13.035156 6.421875 12.832031 6.421875 L 11.933594 6.421875 C 11.707031 6.421875 11.601562 6.558594 11.539062 6.699219 C 11.539062 6.699219 10.976562 7.851562 10.332031 8.613281 C 10.121094 8.832031 10.015625 8.828125 9.902344 8.828125 C 9.839844 8.828125 9.6875 8.753906 9.6875 8.550781 L 9.6875 6.769531 C 9.6875 6.53125 9.628906 6.421875 9.4375 6.421875 L 7.835938 6.421875 C 7.699219 6.421875 7.625 6.53125 7.625 6.640625 C 7.625 6.871094 7.933594 6.925781 7.96875 7.570312 L 7.96875 8.816406 C 7.96875 9.117188 7.917969 9.171875 7.804688 9.171875 C 7.496094 9.171875 6.894531 8.140625 6.492188 6.789062 C 6.402344 6.523438 6.316406 6.421875 6.089844 6.421875 Z M 5.179688 6.421875 "/>
</g>
</svg>
