<?xml version="1.0" encoding="UTF-8"?>
<svg xmlns="http://www.w3.org/2000/svg" xmlns:xlink="http://www.w3.org/1999/xlink" width="16pt" height="16pt" viewBox="0 0 16 16" version="1.1">
<g id="surface16835794">
<path style=" stroke:none;fill-rule:nonzero;fill:rgb(100%,100%,100%);fill-opacity:1;" d="M 3.5 2.5 C 2.953125 2.5 2.5 2.953125 2.5 3.5 L 2.5 12.5 C 2.5 13.046875 2.953125 13.5 3.5 13.5 L 12.5 13.5 C 13.046875 13.5 13.5 13.046875 13.5 12.5 L 13.5 3.5 C 13.5 2.953125 13.046875 2.5 12.5 2.5 Z M 3.5 3.5 L 12.5 3.5 L 12.5 12.5 L 9.90625 12.5 L 9.90625 9.125 L 11.203125 9.125 L 11.390625 7.625 L 9.90625 7.625 L 9.90625 6.65625 C 9.90625 6.21875 10.015625 5.921875 10.640625 5.921875 L 11.453125 5.921875 L 11.453125 4.5625 C 11.316406 4.546875 10.835938 4.515625 10.28125 4.515625 C 9.128906 4.515625 8.34375 5.207031 8.34375 6.5 L 8.34375 7.625 L 7.03125 7.625 L 7.03125 9.125 L 8.34375 9.125 L 8.34375 12.5 L 3.5 12.5 Z M 3.5 3.5 "/>
</g>
</svg>
